<svg xmlns="http://www.w3.org/2000/svg" xmlns:xlink="http://www.w3.org/1999/xlink" xmlns:lucid="lucid" width="1570.84" height="1196.88"><g transform="translate(-279.7098765432099 -100.92307692307713)" lucid:page-tab-id="rWQG4GF1vsY5"><path d="M0 0h1870.4v1323.2H0z" fill="#fff"/><path d="M383.4 134.8c0 7.65-6.2 13.85-13.86 13.85-7.66 0-13.87-6.2-13.87-13.86 0-7.67 6.2-13.88 13.87-13.88 7.66 0 13.86 6.2 13.86 13.87z" stroke="#5e5e5e" stroke-width="3" fill="#fff"/><path d="M369.54 148.65v32.83c0 3.3 1.5 8.23 3.32 11l26.22 39.37m-29.54-44.37L340 231.85m0-69.33h59.08" stroke="#5e5e5e" stroke-width="3" fill="none"/><path d="M340 126.92c0-3.3 2.7-6 6-6h47.08c3.3 0 6 2.7 6 6v120.93c0 3.3-2.7 6-6 6H346c-3.3 0-6-2.7-6-6z" fill="none"/><use xlink:href="#a" transform="matrix(1,0,0,1,260,231.84615384615404) translate(40.70987654320989 17.77777777777778)"/><path d="M758.77 177.38c0 18.95-15.36 34.3-34.3 34.3-18.96 0-34.32-15.35-34.32-34.3 0-18.94 15.36-34.3 34.3-34.3 18.96 0 34.32 15.36 34.32 34.3z" stroke="#5e5e5e" stroke-width="3" fill="#fff"/><path d="M670.15 143.08v68.6m0-34.3h20" stroke="#5e5e5e" stroke-width="3" fill="none"/><use xlink:href="#b" transform="matrix(1,0,0,1,650.1538461538462,211.69230769230782) translate(7.370370370370367 17.77777777777778)"/><path d="M1053.85 177.38c0 18.95-16.53 34.3-36.93 34.3S980 196.34 980 177.4c0-18.94 16.53-34.3 36.92-34.3 20.4 0 36.93 15.36 36.93 34.3z" stroke="#5e5e5e" stroke-width="3" fill="#fff"/><path d="M1024.3 138.65l-7.38 4.43 7.4 5.3" stroke="#5e5e5e" stroke-width="3" fill="none"/><use xlink:href="#c" transform="matrix(1,0,0,1,940,211.6923076923078) translate(9.160493827160494 17.77777777777778)"/><path d="M380 281v20.07m0 20.08v40.14m0 20.07v40.15m0 20.07v40.14m0 20.07v40.16m0 20.07v40.15m0 20.07v40.15m0 20.07v40.15m0 20.08v40.14m0 20.08v40.14m0 20.08v40.15m0 20.06v40.15m0 20.08v40.15m0 20.07v40.15m0 20.07v40.15m0 20.07v40.15m0 20.06v20.08M380 281.03V280M380 1244.5v1.04M714.46 212.76v10.06m0 10.06V253m0 10.06v20.13m0 10.05v20.12m0 10.06v20.12m0 10.07v20.12m0 10.06v20.12m0 10.06v20.12m0 10.07v20.12m0 10.05v20.12m0 10.06v20.13m0 10.06v20.12m0 10.06v20.12m0 10.06v20.13m0 10.07v20.12m0 10.05v20.12m0 10.06v20.13m0 10.06v20.12m0 10.06v20.12m0 10.07v20.1m0 10.07v20.12m0 10.05v20.12m0 10.07v20.12m0 10.06v20.12m0 10.06v20.13m0 10.06v20.1m0 10.07v20.12m0 10.05v20.13m0 10.06v20.12m0 10.06v20.12m0 10.06v20.13m0 10.06v20.1m0 10.07v20.12m0 10.06v20.12m0 10.06V1239" stroke="#5e5e5e" stroke-width="2" fill="none"/><path d="M714.15 211.7l1.3.28v.8h-2v-1.35z" fill="#5e5e5e"/><path d="M714.46 1238.97v1.03" stroke="#5e5e5e" stroke-width="2" fill="none"/><path d="M694.46 406c0-3.3 2.7-6 6-6h28c3.32 0 6 2.7 6 6v468c0 3.3-2.68 6-6 6h-28c-3.3 0-6-2.7-6-6z" stroke="#5e5e5e" stroke-width="3" fill="#fff"/><path d="M1016.92 214.2v10.04m0 10.05v20.08m0 10.05v20.1m0 10.04v20.1m0 10.04v20.1m0 10.05v20.1m0 10.04v20.1m0 10.04v20.1m0 10.04v20.1m0 10.04v20.1m0 10.04v20.1m0 10.04v20.1m0 10.04v20.1m0 10.04v20.1m0 10.05v20.1m0 10.04v20.1m0 10.04v20.1m0 10.05v20.1m0 10.04v20.1m0 10.03v20.1m0 10.04v20.1m0 10.05v20.1m0 10.04v20.1m0 10.04v20.1m0 10.04v20.1m0 10.04v20.1m0 10.04v20.1m0 10.04v20.1m0 10.04v20.1m0 10.05v20.1m0 10.04v20.08m0 10.05v20.1m0 10.04v20.1m0 10.04v20.1m0 10.05V1239" stroke="#5e5e5e" stroke-width="2" fill="none"/><path d="M1016.9 213.2l1.02-.05v1.07h-2v-1.1z" fill="#5e5e5e"/><path d="M1016.92 1238.97v1.03" stroke="#5e5e5e" stroke-width="2" fill="none"/><path d="M1296.92 211.7c-20.4 0-36.92-15.37-36.92-34.32 0-18.94 16.53-34.3 36.92-34.3 20.4 0 36.93 15.36 36.93 34.3 0 18.95-16.53 34.3-36.93 34.3z" stroke="#5e5e5e" stroke-width="3" fill="#fff"/><path d="M1260 211.7h73.85" stroke="#5e5e5e" stroke-width="3" fill="none"/><use xlink:href="#d" transform="matrix(1,0,0,1,1220,211.6923076923078) translate(42.49382716049383 17.77777777777778)"/><path d="M1296.92 214.2v9.94m0 9.95V254m0 9.95v19.9m0 9.95v19.9m0 9.95v19.9m0 9.95v19.9m0 9.95v19.9m0 9.95v19.9m0 9.96v19.9m0 9.95v19.9m0 9.96v19.9m0 9.95v19.9m0 9.96v19.9m0 9.95v19.92m0 9.95v19.9m0 9.95v19.9m0 9.95v19.9m0 9.95v19.9m0 9.95v19.9m0 9.95v19.9m0 9.96v19.9m0 9.95v19.9m0 9.95v19.9m0 9.95v19.9m0 9.95v19.9m0 9.95v19.9m0 9.95v19.9m0 9.96v19.9m0 9.95v19.9m0 9.94v19.9m0 9.95v19.9m0 9.94v19.9m0 9.95v19.9m0 9.95v19.9m0 9.95v19.9m0 9.95v9.95" stroke="#5e5e5e" stroke-width="2" fill="none"/><path d="M1296.87 213.2h1.05v1.02h-2v-1.03z" fill="#5e5e5e"/><path d="M1296.92 1258.97v1.03" stroke="#5e5e5e" stroke-width="2" fill="none"/><path d="M1556.92 211.7c-20.4 0-36.92-15.37-36.92-34.32 0-18.94 16.53-34.3 36.92-34.3 20.4 0 36.93 15.36 36.93 34.3 0 18.95-16.53 34.3-36.93 34.3z" stroke="#5e5e5e" stroke-width="3" fill="#fff"/><path d="M1520 211.7h73.85" stroke="#5e5e5e" stroke-width="3" fill="none"/><use xlink:href="#e" transform="matrix(1,0,0,1,1480,211.6923076923078) translate(35.67283950617284 17.77777777777778)"/><path d="M1556.92 214.2v10.13m0 10.15v20.28m0 10.14v20.28m0 10.14v20.28m0 10.14v20.3m0 10.13v20.28m0 10.14v20.27m0 10.14v20.3m0 10.14v20.28m0 10.14v20.28m0 10.14v20.28m0 10.15V559m0 10.13v20.28m0 10.15v20.28m0 10.15v20.28m0 10.14v20.28m0 10.14v20.28m0 10.14v20.3m0 10.13v20.28m0 10.14v20.27m0 10.14v20.3m0 10.14v20.28m0 10.14v20.28m0 10.14v20.28m0 10.15v20.3m0 10.13v20.28m0 10.15v20.28m0 10.14v20.3m0 10.13v20.28m0 10.14v20.28m0 10.14v20.3m0 10.13v20.28m0 10.14v20.27m0 10.14v20.3m0 10.14v20.28m0 10.14V1279" stroke="#5e5e5e" stroke-width="2" fill="none"/><path d="M1556.87 213.2h1.05v1.02h-2v-1.03z" fill="#5e5e5e"/><path d="M1556.92 1278.97v1.03" stroke="#5e5e5e" stroke-width="2" fill="none"/><path d="M1756.92 211.7c-20.4 0-36.92-15.37-36.92-34.32 0-18.94 16.53-34.3 36.92-34.3 20.4 0 36.93 15.36 36.93 34.3 0 18.95-16.53 34.3-36.93 34.3z" stroke="#5e5e5e" stroke-width="3" fill="#fff"/><path d="M1720 211.7h73.85" stroke="#5e5e5e" stroke-width="3" fill="none"/><use xlink:href="#f" transform="matrix(1,0,0,1,1680,211.6923076923079) translate(5.549382716049394 17.77777777777778)"/><path d="M996.92 446c0-3.3 2.7-6 6-6h28c3.32 0 6 2.7 6 6v368c0 3.3-2.68 6-6 6h-28c-3.3 0-6-2.7-6-6zM1276.92 386c0-3.3 2.7-6 6-6h28c3.32 0 6 2.7 6 6v208c0 3.3-2.68 6-6 6h-28c-3.3 0-6-2.7-6-6z" stroke="#5e5e5e" stroke-width="3" fill="#fff"/><path d="M1760 214.2v9.9m0 9.94v19.84m0 9.92v19.85m0 9.92v19.85m0 9.92v19.84m0 9.93v19.85m0 9.92v19.85m0 9.92v19.84m0 9.93v19.85m0 9.92v19.85m0 9.92v19.85m0 9.9v19.85m0 9.92v19.85m0 9.92v19.85m0 9.9v19.85m0 9.93v19.84m0 9.92v19.85m0 9.9v19.85m0 9.93v19.84m0 9.92v19.85m0 9.9v19.86m0 9.92v19.84m0 9.93V879m0 9.9v19.86m0 9.92v19.84m0 9.93v19.84m0 9.9v19.86m0 9.92v19.85m0 9.92v19.84m0 9.9v19.86m0 9.92v19.85m0 9.92v19.84m0 9.92v19.84m0 9.92v19.85m0 9.92v19.84m0 9.92v19.84m0 9.92v9.93" stroke="#5e5e5e" stroke-width="2" fill="none"/><path d="M1761 214.22h-2v-1.03h2z" fill="#5e5e5e"/><path d="M1760 1285.78v1.03" stroke="#5e5e5e" stroke-width="2" fill="none"/><path d="M1536.92 406c0-3.3 2.7-6 6-6h28c3.32 0 6 2.7 6 6v368c0 3.3-2.68 6-6 6h-28c-3.3 0-6-2.7-6-6z" stroke="#5e5e5e" stroke-width="3" fill="#fff"/><path d="M736.96 588.75h239.96" stroke="#5e5e5e" stroke-width="2" fill="none"/><path d="M737 589.75h-1.04v-2H737z" fill="#5e5e5e"/><path d="M992.2 588.75l-14.28 4.64v-9.28z" stroke="#5e5e5e" stroke-width="2" fill="#5e5e5e"/><use xlink:href="#g" transform="matrix(1,0,0,1,761.4947768281102,563.4183566194085) translate(0 14.222222222222223)"/><use xlink:href="#h" transform="matrix(1,0,0,1,761.4947768281102,563.4183566194085) translate(43.80246913580247 14.222222222222223)"/><use xlink:href="#i" transform="matrix(1,0,0,1,761.4947768281102,563.4183566194085) translate(108.83950617283952 14.222222222222223)"/><use xlink:href="#j" transform="matrix(1,0,0,1,761.4947768281102,563.4183566194085) translate(135.95061728395063 14.222222222222223)"/><use xlink:href="#k" transform="matrix(1,0,0,1,761.4947768281102,563.4183566194085) translate(159.1604938271605 14.222222222222223)"/><path d="M1221.23 306c0-3.3 2.7-6 6-6h88c3.3 0 6 2.7 6 6v8c0 3.3-1.9 7.9-4.24 10.24l-1.53 1.52c-2.34 2.34-6.93 4.24-10.24 4.24h-78c-3.3 0-6-2.7-6-6z" fill="#fff"/><path d="M1321.23 300v20l-10 10h-90" stroke="#5e5e5e" stroke-width="3" fill="none"/><path d="M1221.23 306c0-3.3 2.7-6 6-6H1714c3.3 0 6 2.7 6 6v308c0 3.3-2.7 6-6 6h-486.77c-3.3 0-6-2.7-6-6z" stroke="#5e5e5e" stroke-width="3" fill="none"/><use xlink:href="#l" transform="matrix(1,0,0,1,1229.2307692307513,300) translate(0 19.444444444444443)"/><use xlink:href="#m" transform="matrix(1,0,0,1,1233.2307692307513,338) translate(0 19.444444444444443)"/><use xlink:href="#n" transform="matrix(1,0,0,1,1233.2307692307513,338) translate(38.7037037037037 19.444444444444443)"/><use xlink:href="#o" transform="matrix(1,0,0,1,1233.2307692307513,338) translate(119.44444444444443 19.444444444444443)"/><use xlink:href="#p" transform="matrix(1,0,0,1,1233.2307692307513,338) translate(139.81481481481478 19.444444444444443)"/><path d="M1319.42 401.43h199.24" stroke="#5e5e5e" stroke-width="2" fill="none"/><path d="M1319.45 402.43h-1.03v-2h1.03z" fill="#5e5e5e"/><path d="M1533.92 401.43l-14.26 4.64v-9.27z" stroke="#5e5e5e" stroke-width="2" fill="#5e5e5e"/><use xlink:href="#q" transform="matrix(1,0,0,1,1345.520180358335,376.0987905760479) translate(0 14.222222222222223)"/><use xlink:href="#r" transform="matrix(1,0,0,1,1345.520180358335,376.0987905760479) translate(91.11111111111111 14.222222222222223)"/><use xlink:href="#s" transform="matrix(1,0,0,1,1345.520180358335,376.0987905760479) translate(110.37037037037038 14.222222222222223)"/><path d="M1553.23 298.5" stroke="#5e5e5e" stroke-width="2" fill="none"/><path fill="#5e5e5e"/><path fill="#5e5e5e"/><path d="M1039.42 500h217.5" stroke="#5e5e5e" stroke-width="2" fill="none"/><path d="M1039.45 501h-1.03v-2h1.03z" fill="#5e5e5e"/><path d="M1272.2 500l-14.28 4.64v-9.28z" stroke="#5e5e5e" stroke-width="2" fill="#5e5e5e"/><use xlink:href="#t" transform="matrix(1,0,0,1,1058.6673385403537,474.6666666666664) translate(0 14.222222222222223)"/><path d="M1534.42 465.13h-17.85m-17.84 0h-35.7m-17.85 0h-35.7m-17.84 0h-35.7m-17.85 0h-17.86" stroke="#5e5e5e" stroke-width="2" fill="none"/><path d="M1535.42 466.13h-1.02v-2h1.02z" fill="#5e5e5e"/><path d="M1337.6 454.95l-17.2 10.18 17.2 10.18" stroke="#5e5e5e" stroke-width="2" fill="none"/><use xlink:href="#u" transform="matrix(1,0,0,1,1317.4662867996205,469.1326302880935) translate(0 14.222222222222223)"/><use xlink:href="#v" transform="matrix(1,0,0,1,1317.4662867996205,469.1326302880935) translate(53.283950617283956 14.222222222222223)"/><use xlink:href="#w" transform="matrix(1,0,0,1,1317.4662867996205,469.1326302880935) translate(165.58024691358025 14.222222222222223)"/><use xlink:href="#x" transform="matrix(1,0,0,1,1317.4662867996205,469.1326302880935) translate(225.03703703703704 14.222222222222223)"/><path d="M398.5 980H713.46" stroke="#5e5e5e" stroke-width="2" fill="none"/><path d="M383.24 980l14.26-4.64v9.28z" stroke="#5e5e5e" stroke-width="2" fill="#5e5e5e"/><path d="M713.44 980h1.02" stroke="#5e5e5e" stroke-width="2" fill="none"/><use xlink:href="#y" transform="matrix(1,0,0,1,437.10787820631555,954.6666666666666) translate(0 14.222222222222223)"/><use xlink:href="#z" transform="matrix(1,0,0,1,437.10787820631555,954.6666666666666) translate(34.0246913580247 14.222222222222223)"/><use xlink:href="#A" transform="matrix(1,0,0,1,437.10787820631555,954.6666666666666) translate(53.23456790123458 14.222222222222223)"/><use xlink:href="#B" transform="matrix(1,0,0,1,437.10787820631555,954.6666666666666) translate(123.70370370370372 14.222222222222223)"/><use xlink:href="#C" transform="matrix(1,0,0,1,437.10787820631555,954.6666666666666) translate(142.962962962963 14.222222222222223)"/><use xlink:href="#k" transform="matrix(1,0,0,1,437.10787820631555,954.6666666666666) translate(171.01234567901238 14.222222222222223)"/><path d="M724.92 901.5" stroke="#5e5e5e" stroke-width="2" fill="none"/><path fill="#5e5e5e"/><path fill="#5e5e5e"/><path d="M1274.42 564.56h-217.5" stroke="#5e5e5e" stroke-width="2" fill="none"/><path d="M1275.42 565.56h-1.02v-2h1.02z" fill="#5e5e5e"/><path d="M1041.66 564.56l14.26-4.63v9.27z" stroke="#5e5e5e" stroke-width="2" fill="#5e5e5e"/><g><use xlink:href="#D" transform="matrix(1,0,0,1,1132.503323836657,568.5639033466597) translate(0 14.222222222222223)"/></g><path d="M715.46 326.03h282.96M715.5 326.03h-1.04" stroke="#5e5e5e" stroke-width="2" fill="none"/><path d="M1013.7 326.03l-14.28 4.64v-9.27z" stroke="#5e5e5e" stroke-width="2" fill="#5e5e5e"/><g><use xlink:href="#E" transform="matrix(1,0,0,1,748.8039845690892,300.69873761935685) translate(0 14.222222222222223)"/><use xlink:href="#F" transform="matrix(1,0,0,1,748.8039845690892,300.69873761935685) translate(47.40740740740742 14.222222222222223)"/><use xlink:href="#G" transform="matrix(1,0,0,1,748.8039845690892,300.69873761935685) translate(125.72839506172842 14.222222222222223)"/><use xlink:href="#H" transform="matrix(1,0,0,1,748.8039845690892,300.69873761935685) translate(156.79012345679016 14.222222222222223)"/></g><path d="M754.46 684.53h239.96" stroke="#5e5e5e" stroke-width="2" fill="none"/><path d="M739.2 684.53l14.26-4.63v9.27z" stroke="#5e5e5e" stroke-width="2" fill="#5e5e5e"/><path d="M995.42 685.53h-1.02v-2h1.02z" fill="#5e5e5e"/><g><use xlink:href="#I" transform="matrix(1,0,0,1,800.8281101614435,659.1987326503233) translate(0 14.222222222222223)"/><use xlink:href="#J" transform="matrix(1,0,0,1,800.8281101614435,659.1987326503233) translate(58.76543209876544 14.222222222222223)"/></g><path d="M381 340.37h314.96M381.03 340.37H380" stroke="#5e5e5e" stroke-width="2" fill="none"/><path d="M711.23 340.37L696.96 345v-9.26z" stroke="#5e5e5e" stroke-width="2" fill="#5e5e5e"/><g><use xlink:href="#E" transform="matrix(1,0,0,1,433.99148614545004,315.0387374205955) translate(0 14.222222222222223)"/><use xlink:href="#K" transform="matrix(1,0,0,1,433.99148614545004,315.0387374205955) translate(47.40740740740742 14.222222222222223)"/><use xlink:href="#L" transform="matrix(1,0,0,1,433.99148614545004,315.0387374205955) translate(104.04938271604941 14.222222222222223)"/></g><g class="lucid-layer" lucid:layer-id="vvRGgP-qZHFy" display="block"><path d="M660 386c0-3.3 2.7-6 6-6h88c3.3 0 6 2.7 6 6v8c0 3.3-1.9 7.9-4.24 10.24l-1.52 1.52C751.9 408.1 747.3 410 744 410h-78c-3.3 0-6-2.7-6-6z" fill="#fff"/><path d="M760 380v20l-10 10h-90" stroke="#5e5e5e" stroke-width="3" fill="none"/><path d="M660 386c0-3.3 2.7-6 6-6h117.85c3.3 0 6 2.7 6 6v508c0 3.3-2.7 6-6 6H666c-3.3 0-6-2.7-6-6zM660 600.2h20m15 0h20m15 0h20m15 0h20" stroke="#5e5e5e" stroke-width="3" fill="none"/><use xlink:href="#M" transform="matrix(1,0,0,1,668,380) translate(0 19.444444444444443)"/><use xlink:href="#N" transform="matrix(1,0,0,1,672,418) translate(0 19.444444444444443)"/><use xlink:href="#O" transform="matrix(1,0,0,1,672,418) translate(70.74074074074075 19.444444444444443)"/><g><use xlink:href="#N" transform="matrix(1,0,0,1,672,608.2040816326531) translate(0 19.444444444444443)"/><use xlink:href="#P" transform="matrix(1,0,0,1,672,608.2040816326531) translate(70.74074074074075 19.444444444444443)"/></g></g><defs><path fill="#333" d="M50-37c14 0 21 9 21 21S62 5 50 5C37 5 28-4 28-16s8-21 22-21zm0-132c12 0 21 9 21 21 0 13-9 22-21 22-13 0-22-9-22-22 0-12 9-21 22-21" id="Q"/><path fill="#333" d="M81-9v9H4v-9l26-5 81-224h33l83 224 30 5v9h-99v-9l31-5-23-68H73L49-14zm38-203L78-98h82" id="R"/><path fill="#333" d="M45-84c0 64 52 80 104 63 1 25-30 25-55 25-56 0-80-32-80-88 0-76 62-98 131-80v46h-10c-5-15-4-31-23-35-47-10-67 21-67 69" id="S"/><path fill="#333" d="M32-163c41-10 102-14 102 39v112c8 3 24-2 21 12h-45l-4-17C83 13 3 13 13-46c-2-50 45-50 92-51 4-36-5-70-42-56-6 2-12 4-16 6-4 7 0 23-15 20v-36zM42-47c0 41 41 33 63 22v-59c-34 1-63-1-63 37" id="T"/><path fill="#333" d="M13-81c0-71 46-101 114-85l-1-72-28-4v-8h57v238c8 3 24-2 21 12h-47l-2-12C80 23 13-1 13-81zm77-74c-37 1-44 33-45 74 0 38 9 66 45 66 14 0 27-3 36-7v-130c-10-1-24-3-36-3" id="U"/><path fill="#333" d="M84-170c49 0 66 33 63 87H46c-8 60 38 80 95 63v10C128-2 108 4 88 4 34 4 14-29 14-84c-1-54 22-86 70-86zm33 73c12-57-57-82-69-24-1 7-2 15-2 24h71" id="V"/><path fill="#333" d="M126-118c4-37-42-32-68-25v131l24 4v8H8C5-13 21-9 28-12v-141c-7-3-23 1-20-12h48l1 13c22-15 77-30 92 2 32-22 104-36 104 29v109c8 3 24-2 21 12h-75v-8l25-4v-106c3-39-45-31-72-24 7 37 1 88 3 130l25 4v8h-78v-8l24-4v-106" id="W"/><path fill="#333" d="M47-200c-23 0-25-39 0-38 13 0 18 7 20 19-1 11-8 19-20 19zM65-12l28 4v8H8v-8l28-4v-141l-24-4v-8h53v153" id="X"/><path fill="#333" d="M178-68c0 79-95 82-154 59v-54h12c1 35 22 52 60 52 50 0 69-58 33-82-39-24-105-21-105-85 0-67 86-66 142-53v49h-12l-6-29c-31-27-121-7-89 42 28 43 119 24 119 101" id="Y"/><path fill="#333" d="M54-38c-1 25 24 26 44 20v12C71 10 25 9 25-35v-115H4c-2-14 14-10 21-15l18-38h11v38h38v15H54v112" id="Z"/><path fill="#333" d="M103-236c-39-15-35 32-34 71h44v15H69v136l35 6v8H15v-8l25-6v-136H11v-9l29-7c-6-59 23-100 80-84v36c-15 2-12-14-17-22" id="aa"/><g id="a"><use transform="matrix(0.06172839506172839,0,0,0.06172839506172839,0,0)" xlink:href="#Q"/><use transform="matrix(0.06172839506172839,0,0,0.06172839506172839,6.172839506172839,0)" xlink:href="#R"/><use transform="matrix(0.06172839506172839,0,0,0.06172839506172839,22.160493827160494,0)" xlink:href="#S"/><use transform="matrix(0.06172839506172839,0,0,0.06172839506172839,31.975308641975307,0)" xlink:href="#T"/><use transform="matrix(0.06172839506172839,0,0,0.06172839506172839,41.79012345679013,0)" xlink:href="#U"/><use transform="matrix(0.06172839506172839,0,0,0.06172839506172839,52.90123456790124,0)" xlink:href="#V"/><use transform="matrix(0.06172839506172839,0,0,0.06172839506172839,62.71604938271606,0)" xlink:href="#W"/><use transform="matrix(0.06172839506172839,0,0,0.06172839506172839,80,0)" xlink:href="#X"/><use transform="matrix(0.06172839506172839,0,0,0.06172839506172839,86.17283950617283,0)" xlink:href="#S"/><use transform="matrix(0.06172839506172839,0,0,0.06172839506172839,95.98765432098764,0)" xlink:href="#Y"/><use transform="matrix(0.06172839506172839,0,0,0.06172839506172839,108.33333333333333,0)" xlink:href="#Z"/><use transform="matrix(0.06172839506172839,0,0,0.06172839506172839,114.50617283950616,0)" xlink:href="#T"/><use transform="matrix(0.06172839506172839,0,0,0.06172839506172839,124.32098765432097,0)" xlink:href="#aa"/><use transform="matrix(0.06172839506172839,0,0,0.06172839506172839,131.23456790123456,0)" xlink:href="#aa"/></g><path fill="#333" d="M125-118c4-37-41-34-68-26v132l23 4v8H8C5-13 21-9 28-12v-141c-7-3-23 1-20-12h47l2 13c31-23 98-29 98 31v109c7 3 23-1 20 12h-72v-8l22-4v-106" id="ab"/><path fill="#333" d="M75-108c48 3 76-12 76-58s-28-57-76-54v112zm111-58c-1 60-46 78-111 74v78l37 5v9H13v-9l28-5v-208l-31-4v-10c81 1 178-14 176 70" id="ac"/><path fill="#333" d="M141-152c28 39 5 97-54 97-9 0-20-2-27-3L49-35c29 22 130-14 124 52-4 45-38 57-88 61C21 83-8 26 45-2 33-6 22-15 21-31l28-31c-19-9-28-26-28-51-2-51 53-65 100-52l38-20 7 8zM85 64c35 0 61-11 61-42 0-35-57-17-89-21-9 8-16 19-17 34 0 25 19 29 45 29zM52-113c1 26 7 46 35 44 28-1 34-16 35-44 0-26-6-43-34-43s-36 17-36 43" id="ad"/><path fill="#333" d="M134-16c44-1 70-21 70-64v-142l-32-4v-10h80v10l-30 4v141c0 57-33 84-91 85-58 0-93-26-93-82v-144l-30-4v-10h94v10l-30 4c7 82-31 209 62 206" id="ae"/><path fill="#333" d="M77-14l30 5v9H13v-9l30-5v-208l-30-4v-10h94v10l-30 4v208" id="af"/><g id="b"><use transform="matrix(0.06172839506172839,0,0,0.06172839506172839,0,0)" xlink:href="#Q"/><use transform="matrix(0.06172839506172839,0,0,0.06172839506172839,6.172839506172839,0)" xlink:href="#R"/><use transform="matrix(0.06172839506172839,0,0,0.06172839506172839,22.160493827160494,0)" xlink:href="#U"/><use transform="matrix(0.06172839506172839,0,0,0.06172839506172839,33.27160493827161,0)" xlink:href="#W"/><use transform="matrix(0.06172839506172839,0,0,0.06172839506172839,50.55555555555556,0)" xlink:href="#X"/><use transform="matrix(0.06172839506172839,0,0,0.06172839506172839,56.7283950617284,0)" xlink:href="#ab"/><use transform="matrix(0.06172839506172839,0,0,0.06172839506172839,67.8395061728395,0)" xlink:href="#ac"/><use transform="matrix(0.06172839506172839,0,0,0.06172839506172839,80.18518518518519,0)" xlink:href="#T"/><use transform="matrix(0.06172839506172839,0,0,0.06172839506172839,90,0)" xlink:href="#ad"/><use transform="matrix(0.06172839506172839,0,0,0.06172839506172839,101.11111111111111,0)" xlink:href="#V"/><use transform="matrix(0.06172839506172839,0,0,0.06172839506172839,110.92592592592592,0)" xlink:href="#ae"/><use transform="matrix(0.06172839506172839,0,0,0.06172839506172839,126.91358024691357,0)" xlink:href="#af"/></g><path fill="#333" d="M52-115c0 93 80 130 150 87l7-35h11l-1 55c-23 7-52 12-83 12C60 4 19-37 15-115c-5-113 97-141 201-114l1 51h-12l-5-30c-15-9-39-16-62-16-66 0-86 41-86 109" id="ag"/><path fill="#333" d="M90-170c52 0 76 32 76 87 0 54-24 87-77 87-51 0-75-34-75-87 0-54 24-87 76-87zM89-10c39 0 46-35 46-73 0-39-7-73-46-73-39 1-44 34-44 73s6 72 44 73" id="ah"/><path fill="#333" d="M57-145c16-10 35-24 60-25v45c-19 1-8-30-40-17l-20 6v124l29 4v8H7v-8l21-4v-141c-8-3-24 2-21-12h48" id="ai"/><path fill="#333" d="M65-12l28 4v8H7v-8l28-4v-226l-28-4v-8h58v238" id="aj"/><g id="c"><use transform="matrix(0.06172839506172839,0,0,0.06172839506172839,0,0)" xlink:href="#Q"/><use transform="matrix(0.06172839506172839,0,0,0.06172839506172839,6.172839506172839,0)" xlink:href="#R"/><use transform="matrix(0.06172839506172839,0,0,0.06172839506172839,22.160493827160494,0)" xlink:href="#U"/><use transform="matrix(0.06172839506172839,0,0,0.06172839506172839,33.27160493827161,0)" xlink:href="#W"/><use transform="matrix(0.06172839506172839,0,0,0.06172839506172839,50.55555555555556,0)" xlink:href="#X"/><use transform="matrix(0.06172839506172839,0,0,0.06172839506172839,56.7283950617284,0)" xlink:href="#ab"/><use transform="matrix(0.06172839506172839,0,0,0.06172839506172839,67.8395061728395,0)" xlink:href="#ag"/><use transform="matrix(0.06172839506172839,0,0,0.06172839506172839,82.65432098765432,0)" xlink:href="#ah"/><use transform="matrix(0.06172839506172839,0,0,0.06172839506172839,93.76543209876543,0)" xlink:href="#ab"/><use transform="matrix(0.06172839506172839,0,0,0.06172839506172839,104.87654320987654,0)" xlink:href="#Z"/><use transform="matrix(0.06172839506172839,0,0,0.06172839506172839,111.04938271604938,0)" xlink:href="#ai"/><use transform="matrix(0.06172839506172839,0,0,0.06172839506172839,118.39506172839506,0)" xlink:href="#ah"/><use transform="matrix(0.06172839506172839,0,0,0.06172839506172839,129.50617283950618,0)" xlink:href="#aj"/></g><path fill="#333" d="M124-13C89 8 26 15 26-45v-108c-8-3-24 2-21-12h50v118c-3 37 42 32 69 25v-131l-25-4v-8h54v153c8 3 24-2 21 12h-48" id="ak"/><path fill="#333" d="M41-130c7 48 86 23 86 84 0 56-69 57-112 41v-40c20 0 9 29 31 31 35 19 77-26 41-50-27-18-72-13-72-59 0-50 58-52 100-41v36c-19 1-8-25-28-25-21-7-50-1-46 23" id="al"/><g id="d"><use transform="matrix(0.06172839506172839,0,0,0.06172839506172839,0,0)" xlink:href="#Q"/><use transform="matrix(0.06172839506172839,0,0,0.06172839506172839,6.172839506172839,0)" xlink:href="#ag"/><use transform="matrix(0.06172839506172839,0,0,0.06172839506172839,20.98765432098765,0)" xlink:href="#ah"/><use transform="matrix(0.06172839506172839,0,0,0.06172839506172839,32.09876543209876,0)" xlink:href="#ak"/><use transform="matrix(0.06172839506172839,0,0,0.06172839506172839,43.20987654320987,0)" xlink:href="#ai"/><use transform="matrix(0.06172839506172839,0,0,0.06172839506172839,50.55555555555555,0)" xlink:href="#al"/><use transform="matrix(0.06172839506172839,0,0,0.06172839506172839,59.197530864197525,0)" xlink:href="#V"/></g><g id="e"><use transform="matrix(0.06172839506172839,0,0,0.06172839506172839,0,0)" xlink:href="#Q"/><use transform="matrix(0.06172839506172839,0,0,0.06172839506172839,6.172839506172839,0)" xlink:href="#Y"/><use transform="matrix(0.06172839506172839,0,0,0.06172839506172839,18.51851851851852,0)" xlink:href="#Z"/><use transform="matrix(0.06172839506172839,0,0,0.06172839506172839,24.691358024691358,0)" xlink:href="#ak"/><use transform="matrix(0.06172839506172839,0,0,0.06172839506172839,35.80246913580247,0)" xlink:href="#U"/><use transform="matrix(0.06172839506172839,0,0,0.06172839506172839,46.91358024691358,0)" xlink:href="#V"/><use transform="matrix(0.06172839506172839,0,0,0.06172839506172839,56.7283950617284,0)" xlink:href="#ab"/><use transform="matrix(0.06172839506172839,0,0,0.06172839506172839,67.8395061728395,0)" xlink:href="#Z"/><use transform="matrix(0.06172839506172839,0,0,0.06172839506172839,74.01234567901234,0)" xlink:href="#al"/></g><path fill="#333" d="M199-173c-1 36-21 56-49 65l64 94 26 5v9h-57l-66-103H75v89l35 5v9H13v-9l28-5v-208l-31-4v-10c80 4 190-20 189 63zM75-119c50 2 89-1 89-51 0-49-39-52-89-50v101" id="am"/><g id="f"><use transform="matrix(0.06172839506172839,0,0,0.06172839506172839,0,0)" xlink:href="#Q"/><use transform="matrix(0.06172839506172839,0,0,0.06172839506172839,6.172839506172839,0)" xlink:href="#ag"/><use transform="matrix(0.06172839506172839,0,0,0.06172839506172839,20.98765432098765,0)" xlink:href="#ah"/><use transform="matrix(0.06172839506172839,0,0,0.06172839506172839,32.09876543209876,0)" xlink:href="#ak"/><use transform="matrix(0.06172839506172839,0,0,0.06172839506172839,43.20987654320987,0)" xlink:href="#ai"/><use transform="matrix(0.06172839506172839,0,0,0.06172839506172839,50.55555555555555,0)" xlink:href="#al"/><use transform="matrix(0.06172839506172839,0,0,0.06172839506172839,59.197530864197525,0)" xlink:href="#V"/><use transform="matrix(0.06172839506172839,0,0,0.06172839506172839,69.01234567901234,0)" xlink:href="#am"/><use transform="matrix(0.06172839506172839,0,0,0.06172839506172839,83.82716049382715,0)" xlink:href="#V"/><use transform="matrix(0.06172839506172839,0,0,0.06172839506172839,93.64197530864196,0)" xlink:href="#ad"/><use transform="matrix(0.06172839506172839,0,0,0.06172839506172839,104.75308641975307,0)" xlink:href="#X"/><use transform="matrix(0.06172839506172839,0,0,0.06172839506172839,110.92592592592591,0)" xlink:href="#al"/><use transform="matrix(0.06172839506172839,0,0,0.06172839506172839,119.56790123456788,0)" xlink:href="#Z"/><use transform="matrix(0.06172839506172839,0,0,0.06172839506172839,125.74074074074072,0)" xlink:href="#V"/><use transform="matrix(0.06172839506172839,0,0,0.06172839506172839,135.55555555555554,0)" xlink:href="#ai"/></g><path fill="#333" d="M92-112c43 4 61-13 61-54s-18-54-61-50v104zm118-54c0 63-50 78-118 74v74l39 5V0H8v-13l28-5v-200l-30-5v-13c88 3 205-20 204 70" id="an"/><path fill="#333" d="M132-132c-21 0-37 9-50 16v100l26 4V0H10v-12l21-4v-133l-21-5v-11h69l2 34c17-18 35-41 71-40v61c-17 3-14-14-20-22" id="ao"/><path fill="#333" d="M77-16l18 4V0H8v-12l18-4v-133l-17-5v-11h68v149zM51-196c-16 0-27-10-27-27s10-27 27-27 27 11 27 27c0 17-10 27-27 27" id="ap"/><path fill="#333" d="M127-114c3-31-26-38-50-25v123l15 4V0H10v-12l16-4v-133l-16-5v-11h64l2 14c31-23 102-32 102 30v105l17 4V0h-82v-12l14-4v-98" id="aq"/><path fill="#333" d="M78-41c-2 24 21 26 40 20C122 3 98 2 77 4 5 10 32-84 27-147H6v-11l25-7 21-38h26v38h35v18H78v106" id="ar"/><g id="g"><use transform="matrix(0.04938271604938272,0,0,0.04938271604938272,0,0)" xlink:href="#an"/><use transform="matrix(0.04938271604938272,0,0,0.04938271604938272,10.814814814814815,0)" xlink:href="#ao"/><use transform="matrix(0.04938271604938272,0,0,0.04938271604938272,18.666666666666668,0)" xlink:href="#ap"/><use transform="matrix(0.04938271604938272,0,0,0.04938271604938272,23.60493827160494,0)" xlink:href="#aq"/><use transform="matrix(0.04938271604938272,0,0,0.04938271604938272,33.48148148148148,0)" xlink:href="#ar"/></g><path fill="#333" d="M102-142c-14-17-68-15-54 18 24 26 83 17 83 72 0 62-72 62-120 47v-45h12c4 23 16 37 43 37 35 0 39-37 9-46-31-9-65-19-64-61 0-52 59-55 108-45v43h-11" id="as"/><path fill="#333" d="M73-51c-3 31 27 38 51 25v-123l-16-5v-11h66v149l17 4V0h-65l-2-14C94 9 22 18 22-44v-105l-17-5v-11h68v114" id="at"/><path fill="#333" d="M15-82c-4-69 47-101 113-83l-1-69-17-4v-12h68v234l18 4V0h-63l-4-9C77 23 5-9 15-82zm112-66c-43-16-64 17-61 65 2 33 3 67 32 67 12 0 22-3 29-8v-124" id="au"/><path fill="#333" d="M12-83c0-55 22-85 75-86 52-1 66 33 63 88H64c-1 37 6 64 44 63 14 0 28-4 39-6 3 28-28 25-55 27-57 4-80-31-80-86zm90-17c2-26 0-63-27-48-10 9-11 28-11 48h38" id="av"/><g id="h"><use transform="matrix(0.04938271604938272,0,0,0.04938271604938272,0,0)" xlink:href="#as"/><use transform="matrix(0.04938271604938272,0,0,0.04938271604938272,6.913580246913581,0)" xlink:href="#ar"/><use transform="matrix(0.04938271604938272,0,0,0.04938271604938272,12.790123456790125,0)" xlink:href="#at"/><use transform="matrix(0.04938271604938272,0,0,0.04938271604938272,22.666666666666668,0)" xlink:href="#au"/><use transform="matrix(0.04938271604938272,0,0,0.04938271604938272,32.543209876543216,0)" xlink:href="#av"/><use transform="matrix(0.04938271604938272,0,0,0.04938271604938272,40.39506172839507,0)" xlink:href="#aq"/><use transform="matrix(0.04938271604938272,0,0,0.04938271604938272,50.271604938271615,0)" xlink:href="#ar"/></g><path fill="#333" d="M76-16l18 4V0H7v-12l18-4v-218l-17-4v-12h68v234" id="aw"/><g id="i"><use transform="matrix(0.04938271604938272,0,0,0.04938271604938272,0,0)" xlink:href="#aw"/><use transform="matrix(0.04938271604938272,0,0,0.04938271604938272,4.938271604938272,0)" xlink:href="#ap"/><use transform="matrix(0.04938271604938272,0,0,0.04938271604938272,9.876543209876544,0)" xlink:href="#as"/><use transform="matrix(0.04938271604938272,0,0,0.04938271604938272,16.790123456790127,0)" xlink:href="#ar"/></g><path fill="#333" d="M72-18c49 15 64-22 62-69-1-34-4-62-34-63-10-1-23 2-28 6v126zm33 22C77 4 48-3 21-8v-226l-16-4v-12h67c-1 31 2 66-2 94 11-8 28-14 47-14 51 0 70 31 69 83-1 55-26 91-81 91" id="ax"/><path fill="#333" d="M81 5L15-149c-7-2-13-5-11-16h84v11l-20 5 39 91 35-91-19-5v-11h53c2 11-4 13-11 15C134-81 111-5 75 58 65 77 34 83 8 74V32h11c0 24 29 35 43 12 7-11 13-25 19-39" id="ay"/><g id="j"><use transform="matrix(0.04938271604938272,0,0,0.04938271604938272,0,0)" xlink:href="#ax"/><use transform="matrix(0.04938271604938272,0,0,0.04938271604938272,9.876543209876544,0)" xlink:href="#ay"/></g><path fill="#333" d="M109-18c15 0 31-2 42-6v14c-11 9-31 13-51 13-59 0-86-28-88-86-3-75 66-101 135-80v48h-13c-3-20-7-40-34-37-51 7-55 138 9 134" id="az"/><path fill="#333" d="M90-170c54-1 76 32 76 87 1 56-23 87-77 87-53 0-75-32-75-87s23-86 76-87zM89-14c28-2 26-38 26-69s3-69-26-69c-27 0-24 39-24 69s-3 66 24 69" id="aA"/><g id="k"><use transform="matrix(0.04938271604938272,0,0,0.04938271604938272,0,0)" xlink:href="#az"/><use transform="matrix(0.04938271604938272,0,0,0.04938271604938272,7.851851851851852,0)" xlink:href="#aA"/><use transform="matrix(0.04938271604938272,0,0,0.04938271604938272,16.74074074074074,0)" xlink:href="#at"/><use transform="matrix(0.04938271604938272,0,0,0.04938271604938272,26.617283950617285,0)" xlink:href="#ao"/><use transform="matrix(0.04938271604938272,0,0,0.04938271604938272,34.46913580246914,0)" xlink:href="#as"/><use transform="matrix(0.04938271604938272,0,0,0.04938271604938272,41.38271604938272,0)" xlink:href="#av"/></g><path fill="#333" d="M111-226l-36 4v207c33-1 73 2 101-4l11-49h11l-3 68H10v-9l31-5v-208l-31-4v-10h101v10" id="aB"/><path fill="#333" d="M166-85c3 67-44 102-111 85l1 64 29 4v9H6v-9l21-4v-217c-7-3-22 1-19-12h46l1 9c11-8 26-14 45-14 47 2 64 36 66 85zM56-13c53 14 83-14 78-72 7-53-33-79-78-60v132" id="aC"/><g id="l"><use transform="matrix(0.06172839506172839,0,0,0.06172839506172839,0,0)" xlink:href="#aB"/><use transform="matrix(0.06172839506172839,0,0,0.06172839506172839,13.518518518518517,0)" xlink:href="#ah"/><use transform="matrix(0.06172839506172839,0,0,0.06172839506172839,24.629629629629626,0)" xlink:href="#ah"/><use transform="matrix(0.06172839506172839,0,0,0.06172839506172839,35.74074074074073,0)" xlink:href="#aC"/></g><path fill="#333" d="M27 48v-298h80v8l-52 8V33l52 7v8H27" id="aD"/><g id="m"><use transform="matrix(0.06172839506172839,0,0,0.06172839506172839,0,0)" xlink:href="#aD"/><use transform="matrix(0.06172839506172839,0,0,0.06172839506172839,7.345679012345679,0)" xlink:href="#aa"/><use transform="matrix(0.06172839506172839,0,0,0.06172839506172839,14.691358024691358,0)" xlink:href="#ah"/><use transform="matrix(0.06172839506172839,0,0,0.06172839506172839,25.80246913580247,0)" xlink:href="#ai"/></g><path fill="#333" d="M108-235c-52 28-62 95-58 178 3 56 21 97 58 119v15C7 49-17-153 67-223c12-10 25-19 41-27v15" id="aE"/><g id="n"><use transform="matrix(0.06172839506172839,0,0,0.06172839506172839,0,0)" xlink:href="#aE"/><use transform="matrix(0.06172839506172839,0,0,0.06172839506172839,7.345679012345679,0)" xlink:href="#Y"/><use transform="matrix(0.06172839506172839,0,0,0.06172839506172839,19.691358024691358,0)" xlink:href="#Z"/><use transform="matrix(0.06172839506172839,0,0,0.06172839506172839,25.864197530864196,0)" xlink:href="#ak"/><use transform="matrix(0.06172839506172839,0,0,0.06172839506172839,36.9753086419753,0)" xlink:href="#U"/><use transform="matrix(0.06172839506172839,0,0,0.06172839506172839,48.08641975308642,0)" xlink:href="#V"/><use transform="matrix(0.06172839506172839,0,0,0.06172839506172839,57.901234567901234,0)" xlink:href="#ab"/><use transform="matrix(0.06172839506172839,0,0,0.06172839506172839,69.01234567901234,0)" xlink:href="#Z"/></g><g id="o"><use transform="matrix(0.06172839506172839,0,0,0.06172839506172839,0,0)" xlink:href="#al"/><use transform="matrix(0.06172839506172839,0,0,0.06172839506172839,8.641975308641975,0)" xlink:href="#Q"/></g><path fill="#333" d="M13 48v-8l52-7v-267l-52-8v-8h80V48H13" id="aF"/><g id="p"><use transform="matrix(0.06172839506172839,0,0,0.06172839506172839,0,0)" xlink:href="#al"/><use transform="matrix(0.06172839506172839,0,0,0.06172839506172839,8.641975308641975,0)" xlink:href="#Z"/><use transform="matrix(0.06172839506172839,0,0,0.06172839506172839,14.814814814814813,0)" xlink:href="#ak"/><use transform="matrix(0.06172839506172839,0,0,0.06172839506172839,25.925925925925924,0)" xlink:href="#U"/><use transform="matrix(0.06172839506172839,0,0,0.06172839506172839,37.03703703703704,0)" xlink:href="#aB"/><use transform="matrix(0.06172839506172839,0,0,0.06172839506172839,50.55555555555556,0)" xlink:href="#X"/><use transform="matrix(0.06172839506172839,0,0,0.06172839506172839,56.7283950617284,0)" xlink:href="#al"/><use transform="matrix(0.06172839506172839,0,0,0.06172839506172839,65.37037037037038,0)" xlink:href="#Z"/><use transform="matrix(0.06172839506172839,0,0,0.06172839506172839,71.54320987654322,0)" xlink:href="#aF"/></g><path fill="#333" d="M76-115c0 75 46 117 116 94v-68l-30-5v-13h108v13l-23 5v77C218-3 181 4 145 4 67 4 18-36 18-115c0-83 46-123 130-123 37-1 66 6 91 15v54h-15c2-41-32-51-70-51-60 0-78 41-78 105" id="aG"/><path fill="#333" d="M185-72C185 13 82 14 19-9v-63h16c2 37 21 58 61 58 46 0 69-51 31-71-42-23-106-23-106-90 0-69 87-70 148-56v56h-16l-7-32c-26-25-110-13-82 35 39 34 121 26 121 100" id="aH"/><g id="q"><use transform="matrix(0.04938271604938272,0,0,0.04938271604938272,0,0)" xlink:href="#aG"/><use transform="matrix(0.04938271604938272,0,0,0.04938271604938272,13.827160493827162,0)" xlink:href="#av"/><use transform="matrix(0.04938271604938272,0,0,0.04938271604938272,21.679012345679013,0)" xlink:href="#ar"/><use transform="matrix(0.04938271604938272,0,0,0.04938271604938272,27.555555555555557,0)" xlink:href="#aH"/><use transform="matrix(0.04938271604938272,0,0,0.04938271604938272,37.4320987654321,0)" xlink:href="#ar"/><use transform="matrix(0.04938271604938272,0,0,0.04938271604938272,43.308641975308646,0)" xlink:href="#at"/><use transform="matrix(0.04938271604938272,0,0,0.04938271604938272,53.18518518518519,0)" xlink:href="#au"/><use transform="matrix(0.04938271604938272,0,0,0.04938271604938272,63.061728395061735,0)" xlink:href="#av"/><use transform="matrix(0.04938271604938272,0,0,0.04938271604938272,70.91358024691358,0)" xlink:href="#aq"/><use transform="matrix(0.04938271604938272,0,0,0.04938271604938272,80.79012345679013,0)" xlink:href="#ar"/></g><g id="r"><use transform="matrix(0.04938271604938272,0,0,0.04938271604938272,0,0)" xlink:href="#ap"/><use transform="matrix(0.04938271604938272,0,0,0.04938271604938272,4.938271604938272,0)" xlink:href="#aq"/></g><path fill="#333" d="M76-116c0 86 71 126 135 84l6-39h16l-1 60C138 21 18 1 18-115c0-117 106-141 210-112l1 57h-16l-5-34c-13-9-32-16-54-16-60 0-78 42-78 104" id="aI"/><g id="s"><use transform="matrix(0.04938271604938272,0,0,0.04938271604938272,0,0)" xlink:href="#aI"/><use transform="matrix(0.04938271604938272,0,0,0.04938271604938272,12.790123456790125,0)" xlink:href="#aA"/><use transform="matrix(0.04938271604938272,0,0,0.04938271604938272,21.679012345679013,0)" xlink:href="#at"/><use transform="matrix(0.04938271604938272,0,0,0.04938271604938272,31.555555555555557,0)" xlink:href="#ao"/><use transform="matrix(0.04938271604938272,0,0,0.04938271604938272,39.40740740740741,0)" xlink:href="#as"/><use transform="matrix(0.04938271604938272,0,0,0.04938271604938272,46.320987654320994,0)" xlink:href="#av"/></g><path fill="#333" d="M9 41c2-18 18-26 32-33C29 1 16-9 16-28l29-33c-21-9-31-25-31-51-2-56 61-65 111-53l39-20c13 12-9 24-14 36 35 54-17 114-90 92-17 34 27 28 56 28 36-1 61 12 60 46-2 46-39 62-91 62-38 0-71-6-76-38zm35-3c6 35 97 29 94-9-2-28-50-14-78-17-8 7-15 14-16 26zm20-150c0 22 4 40 23 40 20 0 24-17 24-40 0-24-4-40-24-40-19 0-23 17-23 40" id="aJ"/><path fill="#333" d="M98-18l30 5V0H12v-13l30-5v-200l-30-5v-13h116v13l-30 5v200" id="aK"/><path fill="#333" d="M92-20c74 11 92-29 92-98 0-66-23-103-92-98v196zm150-99C242 9 136 6 6 0v-13l31-5v-200l-31-5v-13h112c81 0 124 34 124 117" id="aL"/><path fill="#333" d="M108-230c-35 27-44 80-44 143s8 116 44 144v20C7 49-17-153 67-223c12-10 25-19 41-27v20" id="aM"/><path fill="#333" d="M12-250C113-222 137-19 52 49 40 59 28 69 12 77V57C48 29 56-24 56-87s-9-116-44-143v-20" id="aN"/><g id="t"><use transform="matrix(0.04938271604938272,0,0,0.04938271604938272,0,0)" xlink:href="#aJ"/><use transform="matrix(0.04938271604938272,0,0,0.04938271604938272,8.88888888888889,0)" xlink:href="#av"/><use transform="matrix(0.04938271604938272,0,0,0.04938271604938272,16.74074074074074,0)" xlink:href="#ar"/><use transform="matrix(0.04938271604938272,0,0,0.04938271604938272,22.617283950617285,0)" xlink:href="#aI"/><use transform="matrix(0.04938271604938272,0,0,0.04938271604938272,35.40740740740741,0)" xlink:href="#aA"/><use transform="matrix(0.04938271604938272,0,0,0.04938271604938272,44.296296296296305,0)" xlink:href="#at"/><use transform="matrix(0.04938271604938272,0,0,0.04938271604938272,54.17283950617284,0)" xlink:href="#ao"/><use transform="matrix(0.04938271604938272,0,0,0.04938271604938272,62.02469135802471,0)" xlink:href="#as"/><use transform="matrix(0.04938271604938272,0,0,0.04938271604938272,68.93827160493828,0)" xlink:href="#av"/><use transform="matrix(0.04938271604938272,0,0,0.04938271604938272,76.79012345679013,0)" xlink:href="#aK"/><use transform="matrix(0.04938271604938272,0,0,0.04938271604938272,83.70370370370371,0)" xlink:href="#aL"/><use transform="matrix(0.04938271604938272,0,0,0.04938271604938272,96.49382716049384,0)" xlink:href="#aM"/><use transform="matrix(0.04938271604938272,0,0,0.04938271604938272,102.37037037037038,0)" xlink:href="#aN"/></g><g id="u"><use transform="matrix(0.04938271604938272,0,0,0.04938271604938272,0,0)" xlink:href="#ao"/><use transform="matrix(0.04938271604938272,0,0,0.04938271604938272,7.506172839506173,0)" xlink:href="#av"/><use transform="matrix(0.04938271604938272,0,0,0.04938271604938272,15.358024691358025,0)" xlink:href="#ar"/><use transform="matrix(0.04938271604938272,0,0,0.04938271604938272,21.23456790123457,0)" xlink:href="#at"/><use transform="matrix(0.04938271604938272,0,0,0.04938271604938272,31.111111111111114,0)" xlink:href="#ao"/><use transform="matrix(0.04938271604938272,0,0,0.04938271604938272,38.96296296296297,0)" xlink:href="#aq"/></g><path fill="#333" d="M203-218l-32-5v-13h84v13l-30 5V0h-21L59-189v171l32 5V0H7v-13l30-5v-200l-30-5v-13h81L203-85v-133" id="aO"/><path fill="#333" d="M31-163c51-5 127-20 127 40v107l17 4V0h-61l-4-13C82 13 12 12 12-46c0-51 46-52 95-53 9-45-22-69-57-44l-7 20H31v-40zM62-47c0 30 26 34 45 23v-59c-28 0-45 6-45 36" id="aP"/><path fill="#333" d="M126-114c3-31-27-37-49-25v123l15 4V0H10v-12l16-4v-133l-16-5v-11h64l2 14c24-16 81-33 96 3 30-24 105-39 105 27v105l17 4V0h-82v-12l14-4v-98c4-33-27-37-51-24 5 35 0 82 2 122l17 4V0h-83v-12l15-4v-98" id="aQ"/><path fill="#333" d="M42-53c42-2 40 57 18 79C46 40 29 50 5 56V40c17-6 32-15 35-34-4-16-27-14-26-36 1-16 12-23 28-23" id="aR"/><g id="v"><use transform="matrix(0.04938271604938272,0,0,0.04938271604938272,0,0)" xlink:href="#aH"/><use transform="matrix(0.04938271604938272,0,0,0.04938271604938272,9.876543209876544,0)" xlink:href="#ar"/><use transform="matrix(0.04938271604938272,0,0,0.04938271604938272,15.753086419753087,0)" xlink:href="#at"/><use transform="matrix(0.04938271604938272,0,0,0.04938271604938272,25.629629629629633,0)" xlink:href="#au"/><use transform="matrix(0.04938271604938272,0,0,0.04938271604938272,35.50617283950618,0)" xlink:href="#av"/><use transform="matrix(0.04938271604938272,0,0,0.04938271604938272,43.35802469135803,0)" xlink:href="#aq"/><use transform="matrix(0.04938271604938272,0,0,0.04938271604938272,53.23456790123457,0)" xlink:href="#ar"/><use transform="matrix(0.04938271604938272,0,0,0.04938271604938272,59.111111111111114,0)" xlink:href="#aO"/><use transform="matrix(0.04938271604938272,0,0,0.04938271604938272,71.90123456790124,0)" xlink:href="#aP"/><use transform="matrix(0.04938271604938272,0,0,0.04938271604938272,80.79012345679013,0)" xlink:href="#aQ"/><use transform="matrix(0.04938271604938272,0,0,0.04938271604938272,95.55555555555556,0)" xlink:href="#av"/><use transform="matrix(0.04938271604938272,0,0,0.04938271604938272,103.40740740740739,0)" xlink:href="#aR"/></g><g id="w"><use transform="matrix(0.04938271604938272,0,0,0.04938271604938272,0,0)" xlink:href="#aJ"/><use transform="matrix(0.04938271604938272,0,0,0.04938271604938272,8.88888888888889,0)" xlink:href="#av"/><use transform="matrix(0.04938271604938272,0,0,0.04938271604938272,16.74074074074074,0)" xlink:href="#aq"/><use transform="matrix(0.04938271604938272,0,0,0.04938271604938272,26.617283950617285,0)" xlink:href="#au"/><use transform="matrix(0.04938271604938272,0,0,0.04938271604938272,36.49382716049383,0)" xlink:href="#av"/><use transform="matrix(0.04938271604938272,0,0,0.04938271604938272,44.345679012345684,0)" xlink:href="#ao"/><use transform="matrix(0.04938271604938272,0,0,0.04938271604938272,50.567901234567906,0)" xlink:href="#aR"/></g><g id="x"><use transform="matrix(0.04938271604938272,0,0,0.04938271604938272,0,0)" xlink:href="#aq"/><use transform="matrix(0.04938271604938272,0,0,0.04938271604938272,9.876543209876544,0)" xlink:href="#aP"/><use transform="matrix(0.04938271604938272,0,0,0.04938271604938272,18.765432098765434,0)" xlink:href="#ar"/><use transform="matrix(0.04938271604938272,0,0,0.04938271604938272,24.641975308641978,0)" xlink:href="#ap"/><use transform="matrix(0.04938271604938272,0,0,0.04938271604938272,29.58024691358025,0)" xlink:href="#aA"/><use transform="matrix(0.04938271604938272,0,0,0.04938271604938272,38.46913580246914,0)" xlink:href="#aq"/><use transform="matrix(0.04938271604938272,0,0,0.04938271604938272,48.345679012345684,0)" xlink:href="#aP"/><use transform="matrix(0.04938271604938272,0,0,0.04938271604938272,57.23456790123457,0)" xlink:href="#aw"/><use transform="matrix(0.04938271604938272,0,0,0.04938271604938272,62.17283950617284,0)" xlink:href="#ap"/><use transform="matrix(0.04938271604938272,0,0,0.04938271604938272,67.11111111111111,0)" xlink:href="#ar"/><use transform="matrix(0.04938271604938272,0,0,0.04938271604938272,72.98765432098766,0)" xlink:href="#ay"/></g><path fill="#333" d="M128-223l-36 5v199l103-3 14-49h16l-7 71H6v-13l30-5v-200l-30-5v-13h122v13" id="aS"/><g id="y"><use transform="matrix(0.04938271604938272,0,0,0.04938271604938272,0,0)" xlink:href="#aS"/><use transform="matrix(0.04938271604938272,0,0,0.04938271604938272,11.851851851851853,0)" xlink:href="#ap"/><use transform="matrix(0.04938271604938272,0,0,0.04938271604938272,16.790123456790127,0)" xlink:href="#as"/><use transform="matrix(0.04938271604938272,0,0,0.04938271604938272,23.70370370370371,0)" xlink:href="#ar"/></g><path fill="#333" d="M107-230c-31-13-29 30-29 65h34v18H78v131l27 4V0H10v-12l18-4v-131H3v-12l25-7c-8-66 31-98 95-84v39h-11" id="aT"/><g id="z"><use transform="matrix(0.04938271604938272,0,0,0.04938271604938272,0,0)" xlink:href="#aA"/><use transform="matrix(0.04938271604938272,0,0,0.04938271604938272,8.88888888888889,0)" xlink:href="#aT"/></g><g id="A"><use transform="matrix(0.04938271604938272,0,0,0.04938271604938272,0,0)" xlink:href="#aH"/><use transform="matrix(0.04938271604938272,0,0,0.04938271604938272,9.876543209876544,0)" xlink:href="#ar"/><use transform="matrix(0.04938271604938272,0,0,0.04938271604938272,15.753086419753087,0)" xlink:href="#at"/><use transform="matrix(0.04938271604938272,0,0,0.04938271604938272,25.629629629629633,0)" xlink:href="#au"/><use transform="matrix(0.04938271604938272,0,0,0.04938271604938272,35.50617283950618,0)" xlink:href="#av"/><use transform="matrix(0.04938271604938272,0,0,0.04938271604938272,43.35802469135803,0)" xlink:href="#aq"/><use transform="matrix(0.04938271604938272,0,0,0.04938271604938272,53.23456790123457,0)" xlink:href="#ar"/><use transform="matrix(0.04938271604938272,0,0,0.04938271604938272,59.111111111111114,0)" xlink:href="#as"/></g><g id="B"><use transform="matrix(0.04938271604938272,0,0,0.04938271604938272,0,0)" xlink:href="#ap"/><use transform="matrix(0.04938271604938272,0,0,0.04938271604938272,4.938271604938272,0)" xlink:href="#aq"/></g><path fill="#333" d="M127-114c3-31-26-38-50-25v123l15 4V0H10v-12l16-4v-218l-17-4v-12h68l-1 99c31-23 102-32 102 30v105l17 4V0h-82v-12l14-4v-98" id="aU"/><g id="C"><use transform="matrix(0.04938271604938272,0,0,0.04938271604938272,0,0)" xlink:href="#ar"/><use transform="matrix(0.04938271604938272,0,0,0.04938271604938272,5.8765432098765435,0)" xlink:href="#aU"/><use transform="matrix(0.04938271604938272,0,0,0.04938271604938272,15.753086419753087,0)" xlink:href="#av"/></g><g id="D"><use transform="matrix(0.04938271604938272,0,0,0.04938271604938272,0,0)" xlink:href="#ao"/><use transform="matrix(0.04938271604938272,0,0,0.04938271604938272,7.506172839506173,0)" xlink:href="#av"/><use transform="matrix(0.04938271604938272,0,0,0.04938271604938272,15.358024691358025,0)" xlink:href="#ar"/><use transform="matrix(0.04938271604938272,0,0,0.04938271604938272,21.23456790123457,0)" xlink:href="#at"/><use transform="matrix(0.04938271604938272,0,0,0.04938271604938272,31.111111111111114,0)" xlink:href="#ao"/><use transform="matrix(0.04938271604938272,0,0,0.04938271604938272,38.96296296296297,0)" xlink:href="#aq"/></g><path fill="#333" d="M6-13l30-5v-200l-30-5v-13h201v60h-16l-6-38-93-2v86h61l6-26h16v73h-16l-6-27H92v91l104-3 10-44h16l-4 66H6v-13" id="aV"/><g id="E"><use transform="matrix(0.04938271604938272,0,0,0.04938271604938272,0,0)" xlink:href="#aV"/><use transform="matrix(0.04938271604938272,0,0,0.04938271604938272,11.851851851851853,0)" xlink:href="#aq"/><use transform="matrix(0.04938271604938272,0,0,0.04938271604938272,21.7283950617284,0)" xlink:href="#ar"/><use transform="matrix(0.04938271604938272,0,0,0.04938271604938272,27.604938271604947,0)" xlink:href="#av"/><use transform="matrix(0.04938271604938272,0,0,0.04938271604938272,35.4567901234568,0)" xlink:href="#ao"/></g><g id="F"><use transform="matrix(0.04938271604938272,0,0,0.04938271604938272,0,0)" xlink:href="#aI"/><use transform="matrix(0.04938271604938272,0,0,0.04938271604938272,12.790123456790125,0)" xlink:href="#aA"/><use transform="matrix(0.04938271604938272,0,0,0.04938271604938272,21.679012345679013,0)" xlink:href="#at"/><use transform="matrix(0.04938271604938272,0,0,0.04938271604938272,31.555555555555557,0)" xlink:href="#ao"/><use transform="matrix(0.04938271604938272,0,0,0.04938271604938272,39.40740740740741,0)" xlink:href="#as"/><use transform="matrix(0.04938271604938272,0,0,0.04938271604938272,46.320987654320994,0)" xlink:href="#av"/><use transform="matrix(0.04938271604938272,0,0,0.04938271604938272,54.17283950617284,0)" xlink:href="#aK"/><use transform="matrix(0.04938271604938272,0,0,0.04938271604938272,61.08641975308644,0)" xlink:href="#aL"/></g><path fill="#333" d="M140-221c-55 0-64 47-64 103S8-14 140-14c56 0 64-48 64-104s-9-103-64-103zm0 225C61 4 18-36 18-118c0-81 41-120 122-120 80 0 122 39 122 120C262-36 219 4 140 4" id="aW"/><g id="G"><use transform="matrix(0.04938271604938272,0,0,0.04938271604938272,0,0)" xlink:href="#aM"/><use transform="matrix(0.04938271604938272,0,0,0.04938271604938272,5.8765432098765435,0)" xlink:href="#aK"/><use transform="matrix(0.04938271604938272,0,0,0.04938271604938272,12.790123456790125,0)" xlink:href="#aW"/></g><path fill="#333" d="M6 0v-13l30-5v-200l-30-5v-13h116v13l-30 5v87h96v-87l-30-5v-13h116v13l-30 5v200l30 5V0H158v-13l30-5v-94H92v94l30 5V0H6" id="aX"/><g id="H"><use transform="matrix(0.04938271604938272,0,0,0.04938271604938272,0,0)" xlink:href="#aX"/><use transform="matrix(0.04938271604938272,0,0,0.04938271604938272,13.827160493827162,0)" xlink:href="#aP"/><use transform="matrix(0.04938271604938272,0,0,0.04938271604938272,22.71604938271605,0)" xlink:href="#aq"/><use transform="matrix(0.04938271604938272,0,0,0.04938271604938272,32.592592592592595,0)" xlink:href="#au"/><use transform="matrix(0.04938271604938272,0,0,0.04938271604938272,42.46913580246914,0)" xlink:href="#aw"/><use transform="matrix(0.04938271604938272,0,0,0.04938271604938272,47.40740740740741,0)" xlink:href="#ap"/><use transform="matrix(0.04938271604938272,0,0,0.04938271604938272,52.345679012345684,0)" xlink:href="#aq"/><use transform="matrix(0.04938271604938272,0,0,0.04938271604938272,62.22222222222223,0)" xlink:href="#aJ"/><use transform="matrix(0.04938271604938272,0,0,0.04938271604938272,71.11111111111111,0)" xlink:href="#aN"/></g><path fill="#333" d="M168-150L102 4H81L12-149c-7-2-15-4-12-16h85v11l-20 5 42 94 38-94-19-5v-11h54v11" id="aY"/><g id="I"><use transform="matrix(0.04938271604938272,0,0,0.04938271604938272,0,0)" xlink:href="#aK"/><use transform="matrix(0.04938271604938272,0,0,0.04938271604938272,6.913580246913581,0)" xlink:href="#aq"/><use transform="matrix(0.04938271604938272,0,0,0.04938271604938272,16.790123456790127,0)" xlink:href="#aY"/><use transform="matrix(0.04938271604938272,0,0,0.04938271604938272,25.679012345679016,0)" xlink:href="#aP"/><use transform="matrix(0.04938271604938272,0,0,0.04938271604938272,34.567901234567906,0)" xlink:href="#aw"/><use transform="matrix(0.04938271604938272,0,0,0.04938271604938272,39.50617283950618,0)" xlink:href="#ap"/><use transform="matrix(0.04938271604938272,0,0,0.04938271604938272,44.44444444444445,0)" xlink:href="#au"/></g><g id="J"><use transform="matrix(0.04938271604938272,0,0,0.04938271604938272,0,0)" xlink:href="#aI"/><use transform="matrix(0.04938271604938272,0,0,0.04938271604938272,12.790123456790125,0)" xlink:href="#aA"/><use transform="matrix(0.04938271604938272,0,0,0.04938271604938272,21.679012345679013,0)" xlink:href="#at"/><use transform="matrix(0.04938271604938272,0,0,0.04938271604938272,31.555555555555557,0)" xlink:href="#ao"/><use transform="matrix(0.04938271604938272,0,0,0.04938271604938272,39.40740740740741,0)" xlink:href="#as"/><use transform="matrix(0.04938271604938272,0,0,0.04938271604938272,46.320987654320994,0)" xlink:href="#av"/><use transform="matrix(0.04938271604938272,0,0,0.04938271604938272,54.17283950617284,0)" xlink:href="#aK"/><use transform="matrix(0.04938271604938272,0,0,0.04938271604938272,61.08641975308644,0)" xlink:href="#au"/></g><g id="K"><use transform="matrix(0.04938271604938272,0,0,0.04938271604938272,0,0)" xlink:href="#aI"/><use transform="matrix(0.04938271604938272,0,0,0.04938271604938272,12.790123456790125,0)" xlink:href="#aU"/><use transform="matrix(0.04938271604938272,0,0,0.04938271604938272,22.66666666666667,0)" xlink:href="#aA"/><use transform="matrix(0.04938271604938272,0,0,0.04938271604938272,31.555555555555557,0)" xlink:href="#ap"/><use transform="matrix(0.04938271604938272,0,0,0.04938271604938272,36.49382716049384,0)" xlink:href="#az"/><use transform="matrix(0.04938271604938272,0,0,0.04938271604938272,44.34567901234569,0)" xlink:href="#av"/></g><path fill="#333" d="M-3 50V25h186v25H-3" id="aZ"/><g id="L"><use transform="matrix(0.04938271604938272,0,0,0.04938271604938272,0,0)" xlink:href="#aZ"/><use transform="matrix(0.04938271604938272,0,0,0.04938271604938272,8.88888888888889,0)" xlink:href="#aZ"/><use transform="matrix(0.04938271604938272,0,0,0.04938271604938272,17.77777777777778,0)" xlink:href="#aZ"/><use transform="matrix(0.04938271604938272,0,0,0.04938271604938272,26.666666666666668,0)" xlink:href="#aZ"/></g><g id="M"><use transform="matrix(0.06172839506172839,0,0,0.06172839506172839,0,0)" xlink:href="#T"/><use transform="matrix(0.06172839506172839,0,0,0.06172839506172839,9.814814814814815,0)" xlink:href="#aj"/><use transform="matrix(0.06172839506172839,0,0,0.06172839506172839,15.987654320987653,0)" xlink:href="#Z"/></g><path fill="#333" d="M126-119c3-38-42-31-69-25v132l23 4v8H7v-8l21-4v-226l-24-4v-8h53l-1 98c31-22 99-31 99 31v109c7 3 23-1 20 12h-71v-8l22-4v-107" id="ba"/><g id="N"><use transform="matrix(0.06172839506172839,0,0,0.06172839506172839,0,0)" xlink:href="#aD"/><use transform="matrix(0.06172839506172839,0,0,0.06172839506172839,7.345679012345679,0)" xlink:href="#S"/><use transform="matrix(0.06172839506172839,0,0,0.06172839506172839,17.160493827160494,0)" xlink:href="#ba"/><use transform="matrix(0.06172839506172839,0,0,0.06172839506172839,28.271604938271604,0)" xlink:href="#ah"/><use transform="matrix(0.06172839506172839,0,0,0.06172839506172839,39.382716049382715,0)" xlink:href="#X"/><use transform="matrix(0.06172839506172839,0,0,0.06172839506172839,45.55555555555556,0)" xlink:href="#S"/><use transform="matrix(0.06172839506172839,0,0,0.06172839506172839,55.370370370370374,0)" xlink:href="#V"/></g><path fill="#333" d="M110-14l48 5v9H32v-9l48-5v-192l-48 17v-10l69-39h9v224" id="bb"/><g id="O"><use transform="matrix(0.06172839506172839,0,0,0.06172839506172839,0,0)" xlink:href="#bb"/><use transform="matrix(0.06172839506172839,0,0,0.06172839506172839,11.11111111111111,0)" xlink:href="#aF"/></g><path fill="#333" d="M24-231c66-21 156 2 128 81C132-92 78-66 39-27h121V0H16v-26l59-54c26-25 47-47 47-97 0-48-47-57-81-37l-6 29H24v-46" id="bc"/><g id="P"><use transform="matrix(0.06172839506172839,0,0,0.06172839506172839,0,0)" xlink:href="#bc"/><use transform="matrix(0.06172839506172839,0,0,0.06172839506172839,11.11111111111111,0)" xlink:href="#aF"/></g></defs></g></svg>